<svg xmlns="http://www.w3.org/2000/svg" viewBox="0 0 16 16" height="16" width="16"><title>religious-shinto-11.svg</title><rect fill="none" x="0" y="0" width="16" height="16"></rect><path fill="#ffffff" transform="translate(2 2)" d="M9.25,2.009H1.75a.75.75,0,0,0,0,1.5H2v5.25a.75.75,0,0,0,1.5,0V6.009h4v2.75a.75.75,0,0,0,1.5,0V3.509h.25a.75.75,0,0,0,0-1.5ZM7.5,4.759H6V3.509H7.5Zm-4-1.25H5v1.25H3.5Z" style="stroke-linejoin:round;stroke-miterlimit:4;" stroke="#ffffff" stroke-width="1"></path><path fill="#ff0000" transform="translate(2 2)" d="M9.25,2.009H1.75a.75.75,0,0,0,0,1.5H2v5.25a.75.75,0,0,0,1.5,0V6.009h4v2.75a.75.75,0,0,0,1.5,0V3.509h.25a.75.75,0,0,0,0-1.5ZM7.5,4.759H6V3.509H7.5Zm-4-1.25H5v1.25H3.5Z"></path></svg>