<svg xmlns="http://www.w3.org/2000/svg" viewBox="0 0 20 20" height="20" width="20"><title>skateboard-15.svg</title><rect fill="none" x="0" y="0" width="20" height="20"></rect><path fill="#ffffff" transform="translate(2 2)" d="M11,8H4A2.0024,2.0024,0,0,1,2,6H3A1.001,1.001,0,0,0,4,7h7a1.001,1.001,0,0,0,1-1h1A2.0024,2.0024,0,0,1,11,8Zm0,1a1,1,0,1,0,1,1A1,1,0,0,0,11,9ZM4,9a1,1,0,1,0,1,1A1,1,0,0,0,4,9Z" style="stroke-linejoin:round;stroke-miterlimit:4;" stroke="#ffffff" stroke-width="1"></path><path fill="#ff0000" transform="translate(2 2)" d="M11,8H4A2.0024,2.0024,0,0,1,2,6H3A1.001,1.001,0,0,0,4,7h7a1.001,1.001,0,0,0,1-1h1A2.0024,2.0024,0,0,1,11,8Zm0,1a1,1,0,1,0,1,1A1,1,0,0,0,11,9ZM4,9a1,1,0,1,0,1,1A1,1,0,0,0,4,9Z"></path></svg>